<?xml version="1.0" encoding="UTF-8" standalone="no"?>
<!-- Generator: Adobe Illustrator 16.0.0, SVG Export Plug-In . SVG Version: 6.00 Build 0)  -->

<svg
   xmlns:dc="http://purl.org/dc/elements/1.1/"
   xmlns:cc="http://creativecommons.org/ns#"
   xmlns:rdf="http://www.w3.org/1999/02/22-rdf-syntax-ns#"
   xmlns:svg="http://www.w3.org/2000/svg"
   xmlns="http://www.w3.org/2000/svg"
   xmlns:sodipodi="http://sodipodi.sourceforge.net/DTD/sodipodi-0.dtd"
   xmlns:inkscape="http://www.inkscape.org/namespaces/inkscape"
   version="1.1"
   id="Calque_1"
   x="0px"
   y="0px"
   width="1244.2321"
   height="731"
   viewBox="0 0 622.166 365.5"
   enable-background="new 0 0 622.166 426.5"
   xml:space="preserve"
   inkscape:version="0.48.5 r10040"
   sodipodi:docname="Logo_Saidal_Groupe.svg"><title
   id="title3788">Saidal Group logo and wordmark (Public Domain file created by User:Issimo_15 using Inkscape and uploaded to Wikimedia Commons)</title><metadata
   id="metadata83"><rdf:RDF><cc:Work
       rdf:about=""><dc:format>image/svg+xml</dc:format><dc:type
         rdf:resource="http://purl.org/dc/dcmitype/StillImage" /><dc:title>Saidal Group logo and wordmark (Public Domain file created by User:Issimo_15 using Inkscape and uploaded to Wikimedia Commons)</dc:title></cc:Work></rdf:RDF></metadata><defs
   id="defs81" /><sodipodi:namedview
   pagecolor="#ffffff"
   bordercolor="#666666"
   borderopacity="1"
   objecttolerance="10"
   gridtolerance="10"
   guidetolerance="10"
   inkscape:pageopacity="0"
   inkscape:pageshadow="2"
   inkscape:window-width="1024"
   inkscape:window-height="712"
   id="namedview79"
   showgrid="false"
   inkscape:zoom="0.55874487"
   inkscape:cx="590.79582"
   inkscape:cy="426.49999"
   inkscape:window-x="-4"
   inkscape:window-y="26"
   inkscape:window-maximized="1"
   inkscape:current-layer="Calque_1" />
<g
   id="g3"
   style="fill:#228d44"
   transform="translate(3.79003,-3.7290644)">
	<path
   d="m 63.046,352.458 c -3.766,1.312 -10.894,3.116 -18.021,3.116 -9.852,0 -16.979,-2.542 -21.945,-7.463 -4.967,-4.756 -7.689,-11.973 -7.609,-20.09 0.08,-18.369 13.135,-28.864 30.836,-28.864 6.968,0 12.334,1.395 14.979,2.706 l -2.563,10.004 c -2.963,-1.313 -6.647,-2.378 -12.575,-2.378 -10.172,0 -17.86,5.903 -17.86,17.877 0,11.397 6.968,18.122 16.979,18.122 2.803,0 5.046,-0.328 6.007,-0.82 v -11.563 h -8.33 v -9.758 h 20.104 v 29.111 z"
   id="path5"
   style="fill:#228d44"
   inkscape:connector-curvature="0" />
	<path
   d="m 72.571,300.47 c 3.926,-0.655 9.771,-1.147 16.26,-1.147 8.01,0 13.615,1.229 17.46,4.347 3.204,2.624 4.966,6.478 4.966,11.562 0,7.053 -4.886,11.892 -9.531,13.612 v 0.246 c 3.766,1.558 5.847,5.248 7.208,10.332 1.683,6.231 3.364,13.448 4.405,15.58 h -12.495 c -0.881,-1.558 -2.163,-6.067 -3.764,-12.874 -1.442,-6.888 -3.766,-8.773 -8.73,-8.855 H 84.666 V 355 H 72.571 v -54.53 z m 12.095,23.78 h 4.806 c 6.087,0 9.691,-3.116 9.691,-7.954 0,-5.084 -3.364,-7.626 -8.971,-7.708 -2.963,0 -4.646,0.246 -5.525,0.41 l -0.001,15.252 0,0 z"
   id="path7"
   style="fill:#228d44"
   inkscape:connector-curvature="0" />
	<path
   d="m 169.159,326.792 c 0,18.122 -10.732,29.11 -26.512,29.11 -16.019,0 -25.39,-12.383 -25.39,-28.127 0,-16.563 10.332,-28.946 26.271,-28.946 16.58,0 25.631,12.711 25.631,27.963 z m -39.006,0.737 c 0,10.824 4.967,18.449 13.136,18.449 8.25,0 12.975,-8.035 12.975,-18.776 0,-9.923 -4.645,-18.45 -13.055,-18.45 -8.25,0 -13.056,8.036 -13.056,18.777 z"
   id="path9"
   style="fill:#228d44"
   inkscape:connector-curvature="0" />
	<path
   d="m 189.337,299.73 v 31.816 c 0,9.512 3.523,14.35 9.771,14.35 6.407,0 9.932,-4.592 9.932,-14.35 V 299.73 h 12.174 v 30.996 c 0,17.058 -8.41,25.176 -22.506,25.176 -13.616,0 -21.625,-7.709 -21.625,-25.34 V 299.73 h 12.254 z"
   id="path11"
   style="fill:#228d44"
   inkscape:connector-curvature="0" />
	<path
   d="m 231.78,300.47 c 3.766,-0.655 9.052,-1.147 16.5,-1.147 7.528,0 12.896,1.477 16.499,4.429 3.444,2.787 5.768,7.38 5.768,12.792 0,5.412 -1.762,10.004 -4.966,13.12 -4.165,4.019 -10.332,5.821 -17.541,5.821 -1.603,0 -3.043,-0.082 -4.165,-0.246 V 355 H 231.78 v -54.53 z m 12.095,25.093 c 1.041,0.246 2.322,0.328 4.084,0.328 6.487,0 10.492,-3.363 10.492,-9.021 0,-5.085 -3.444,-8.118 -9.531,-8.118 -2.483,0 -4.165,0.246 -5.046,0.491 l 0.001,16.32 0,0 z"
   id="path13"
   style="fill:#228d44"
   inkscape:connector-curvature="0" />
	<path
   d="m 310.427,331.63 h -19.863 v 13.12 h 22.187 V 355 h -34.44 v -55.27 h 33.319 v 10.25 h -21.065 v 11.48 h 19.863 v 10.17 z"
   id="path15"
   style="fill:#228d44"
   inkscape:connector-curvature="0" />
	<path
   d="m 337.653,342.126 c 3.284,1.722 8.33,3.444 13.536,3.444 5.606,0 8.569,-2.379 8.569,-5.986 0,-3.443 -2.563,-5.412 -9.05,-7.79 -8.972,-3.198 -14.817,-8.282 -14.817,-16.317 0,-9.431 7.688,-16.646 20.424,-16.646 6.087,0 10.572,1.313 13.775,2.788 l -2.724,10.086 c -2.163,-1.065 -6.007,-2.623 -11.293,-2.623 -5.286,0 -7.85,2.46 -7.85,5.329 0,3.525 3.044,5.085 10.012,7.79 9.531,3.608 14.018,8.692 14.018,16.481 0,9.268 -6.969,17.14 -21.785,17.14 -6.168,0 -12.255,-1.642 -15.298,-3.362 l 2.483,-10.334 z"
   id="path17"
   style="fill:#228d44"
   inkscape:connector-curvature="0" />
	<path
   d="M 393.073,340.813 389.229,355 h -12.655 l 16.499,-55.27 h 16.021 L 425.831,355 h -13.136 l -4.164,-14.188 h -15.458 z m 13.696,-9.347 -3.364,-11.727 c -0.961,-3.279 -1.922,-7.38 -2.723,-10.659 h -0.16 c -0.801,3.279 -1.602,7.462 -2.483,10.659 l -3.202,11.727 h 11.932 z"
   id="path19"
   style="fill:#228d44"
   inkscape:connector-curvature="0" />
	<path
   d="M 445.288,299.73 V 355 h -12.254 v -55.27 h 12.254 z"
   id="path21"
   style="fill:#228d44"
   inkscape:connector-curvature="0" />
	<path
   d="m 455.858,300.47 c 4.485,-0.737 10.332,-1.147 16.499,-1.147 10.252,0 16.9,1.886 22.106,5.904 5.605,4.264 9.13,11.069 9.13,20.827 0,10.578 -3.765,17.876 -8.971,22.386 -5.688,4.84 -14.337,7.136 -24.908,7.136 -6.327,0 -10.813,-0.41 -13.856,-0.82 V 300.47 z m 12.254,45.1 c 1.042,0.246 2.725,0.246 4.245,0.246 11.053,0.08 18.262,-6.15 18.262,-19.354 0.08,-11.48 -6.486,-17.548 -16.979,-17.548 -2.725,0 -4.485,0.245 -5.527,0.491 l -10e-4,36.165 0,0 z"
   id="path23"
   style="fill:#228d44"
   inkscape:connector-curvature="0" />
	<path
   d="M 522.891,340.813 519.047,355 h -12.655 l 16.499,-55.27 h 16.02 L 555.65,355 h -13.136 l -4.164,-14.188 h -15.459 z m 13.696,-9.347 -3.364,-11.727 c -0.961,-3.279 -1.922,-7.38 -2.724,-10.659 h -0.159 c -0.802,3.279 -1.603,7.462 -2.483,10.659 l -3.203,11.727 h 11.933 z"
   id="path25"
   style="fill:#228d44"
   inkscape:connector-curvature="0" />
	<path
   d="m 562.853,299.73 h 12.254 v 44.772 h 21.466 V 355 h -33.72 v -55.27 z"
   id="path27"
   style="fill:#228d44"
   inkscape:connector-curvature="0" />
</g>
<path
   d="m 512.45605,17.270941 h -363.939 l -28.77,62.929989 0.68,1.07 72.75,114 h -79.83 l -29.260021,64 H 456.45605 l 28,-64 -70.359,-114 h 70.359 l 28,-63.999989 z m -322.45,63.999989 h 117.7 l -67.771,78.24 -49.929,-78.24 z m 238.94,114 h -166.189 l 93.439,-114 72.75,114 z"
   id="path29"
   inkscape:connector-curvature="0"
   style="fill:#228d44" />

</svg>